<?xml version="1.0" standalone="no"?>
<!DOCTYPE svg PUBLIC "-//W3C//DTD SVG 20010904//EN"
 "http://www.w3.org/TR/2001/REC-SVG-20010904/DTD/svg10.dtd">
<svg version="1.0" xmlns="http://www.w3.org/2000/svg"
 width="512.000000pt" height="512.000000pt" viewBox="0 0 512.000000 512.000000"
 preserveAspectRatio="xMidYMid meet">
<metadata>
Created by potrace 1.16, written by Peter Selinger 2001-2019
</metadata>
<g transform="translate(0.000000,512.000000) scale(0.100000,-0.100000)"
fill="#fff" stroke="none">
<path d="M3411 4749 c-44 -17 -81 -51 -101 -89 -25 -48 -26 -129 -4 -173 9
-18 132 -148 273 -290 l255 -257 -931 -933 c-550 -550 -936 -944 -943 -961 -6
-16 -8 -41 -5 -56 4 -17 74 -94 194 -213 186 -186 187 -187 231 -187 l45 0
940 940 940 940 245 -245 c135 -135 262 -257 283 -272 79 -55 194 -36 253 43
l29 37 0 807 0 807 -29 37 c-16 21 -47 47 -70 57 -39 18 -80 19 -811 18 -458
0 -780 -4 -794 -10z"/>
<path d="M640 4374 c-302 -64 -558 -320 -624 -624 -15 -68 -16 -204 -14 -1405
l3 -1330 27 -80 c52 -151 136 -273 260 -380 116 -99 251 -161 404 -185 47 -7
484 -10 1359 -7 1384 3 1305 1 1445 51 230 84 434 312 502 561 21 77 22 103
26 600 2 364 0 531 -8 557 -16 56 -47 68 -180 68 -116 0 -159 -11 -176 -47 -5
-10 -11 -254 -14 -543 -5 -515 -5 -526 -27 -580 -46 -112 -151 -218 -260 -261
l-58 -24 -1276 -3 c-1221 -2 -1279 -1 -1336 16 -158 49 -282 189 -313 352 -6
33 -10 493 -10 1269 0 1020 3 1227 15 1284 31 146 154 282 304 335 41 15 155
17 1111 19 755 2 1071 6 1086 14 35 18 44 53 44 175 0 115 -7 147 -39 171 -25
19 -2161 17 -2251 -3z"/>
</g>
</svg>
