<?xml version="1.0" encoding="UTF-8"?>
<!DOCTYPE svg PUBLIC "-//W3C//DTD SVG 1.1//EN" "http://www.w3.org/Graphics/SVG/1.1/DTD/svg11.dtd">
<svg xmlns="http://www.w3.org/2000/svg" version="1.1" width="540px" height="540px" style="shape-rendering:geometricPrecision; text-rendering:geometricPrecision; image-rendering:optimizeQuality; fill-rule:evenodd; clip-rule:evenodd" xmlns:xlink="http://www.w3.org/1999/xlink">
<g><path style="opacity:0.986" fill="#fff" d="M 316.5,16.5 C 343.132,42.6318 369.632,68.9651 396,95.5C 396.5,84.1716 396.667,72.8382 396.5,61.5C 414.5,61.5 432.5,61.5 450.5,61.5C 450.333,91.1685 450.5,120.835 451,150.5C 473.833,173.333 496.667,196.167 519.5,219C 490.833,219.667 462.167,219.667 433.5,219C 394.653,179.986 355.653,141.153 316.5,102.5C 277.347,141.153 238.347,179.986 199.5,219C 171.167,219.667 142.833,219.667 114.5,219C 182.035,151.632 249.368,84.1321 316.5,16.5 Z"/></g>
<g><path style="opacity:0.989" fill="#00a2da" d="M 141.5,240.5 C 154.171,240.333 166.838,240.5 179.5,241C 185.231,241.21 190.897,241.876 196.5,243C 206.665,262.745 222.665,271.412 244.5,269C 254.305,264.361 261.639,257.195 266.5,247.5C 275.147,246.335 283.814,246.168 292.5,247C 295.562,248.061 298.062,249.894 300,252.5C 308.456,268.555 310.789,285.555 307,303.5C 305.682,313.804 301.849,322.971 295.5,331C 284.598,332.62 273.598,332.954 262.5,332C 249.825,310.55 232.492,305.55 210.5,317C 203.11,322.264 198.61,329.431 197,338.5C 196.5,379.165 196.333,419.832 196.5,460.5C 277.5,460.5 358.5,460.5 439.5,460.5C 439.5,388.167 439.5,315.833 439.5,243.5C 461.167,243.5 482.833,243.5 504.5,243.5C 504.5,337.167 504.5,430.833 504.5,524.5C 380.167,524.5 255.833,524.5 131.5,524.5C 131.667,460.166 131.5,395.832 131,331.5C 115.318,315.621 96.8178,311.121 75.5,318C 48.844,329.748 27.6774,347.915 12,372.5C 17.3894,339.727 30.3894,310.394 51,284.5C 75.4959,258.169 105.663,243.502 141.5,240.5 Z"/></g>
</svg>
